 <svg
      id="bf1a9325-cf6c-4a6f-a87b-eafe4228ec51"
      data-name="Layer 1"
      xmlns="http://www.w3.org/2000/svg"
      width="80"
      height="80"
      viewBox="0 0 865.76 682.89"
    >
      <path
        d="M133.16,403.3s12.12,81.93,47,147.65c0,0,31,68,26.06,30.86,0,0,15.53,30.71,24.54,35.38a2.52,2.52,0,0,0,3.65-2.36c-.21-5.2-1.44-19.07-8-43.88,0,0,13.14,42.29,22.85,40.57,0,0,5.15-11.43-4-55.43,0,0,9.89,17.14,17.8,14.29,0,0-2.37-25.15-30.94-74.86,0,0-45.5-70.7-49.61-90.78l-35-26.12Z"
        fill="#2f2e41"
        data-secondary="true"
      />

      <path
        d="M127.79,359.55s-11.08,26.37-1.84,20.91c0,0-4.18,22.26,1.37,30.63a20.61,20.61,0,0,1,5.84-7.79s2.89,15.3,9,21.36c0,0-1.15-9.82,2-13.57,0,0,2.88,10.39,10.39,14.73v-15s5.77,8.38,8.08,9.24c0,0,1.16-13,5.49-14.15,0,0,1.44,10.11,8.37,13.86,0,0,.87-12.12,6.06-15,0,0,2.89,6.35,7.22,7.79l6.49-6.48a5.17,5.17,0,0,1,3.24-1.51c1-.08,2.58-.81,4.71-3.55a19.58,19.58,0,0,0,12.41,5.48s-3.17-1.44-2.6-6.06a23.78,23.78,0,0,0,14.73,6.64,9.23,9.23,0,0,1-2.6-6.64,21.09,21.09,0,0,0,16.74,3.75s-5-.6-7.86-7.52c0,0,16,6.66,28.07,2.61l-22.66-67.82H208.48L163,354.61l-25.81-5.77Z"
        fill="#0071f2"
        data-primary="true"
      />

      <path
        d="M127.79,359.55s-11.08,26.37-1.84,20.91c0,0-4.18,22.26,1.37,30.63a20.61,20.61,0,0,1,5.84-7.79s2.89,15.3,9,21.36c0,0-1.15-9.82,2-13.57,0,0,2.88,10.39,10.39,14.73v-15s5.77,8.38,8.08,9.24c0,0,1.16-13,5.49-14.15,0,0,1.44,10.11,8.37,13.86,0,0,.87-12.12,6.06-15,0,0,2.89,6.35,7.22,7.79l6.49-6.48a5.17,5.17,0,0,1,3.24-1.51c1-.08,2.58-.81,4.71-3.55a19.58,19.58,0,0,0,12.41,5.48s-3.17-1.44-2.6-6.06a23.78,23.78,0,0,0,14.73,6.64,9.23,9.23,0,0,1-2.6-6.64,21.09,21.09,0,0,0,16.74,3.75s-5-.6-7.86-7.52c0,0,16,6.66,28.07,2.61l-22.66-67.82H208.48L163,354.61l-25.81-5.77Z"
        fill="#fff"
        opacity="0.5"
      />

      <path
        d="M133.26,348.67s-8.76,14.21-5,14.49c0,0,1.44,2.25,11-7.24,0,0-9.53,16.3-3.76,15.38,0,0,4.33-.34,20.21-13.62,0,0-7.79,23.1,14.73,5.2,0,0-5.49,9.23,2.31,3.75,0,0,11.05-4.07,21.65-22.23,0,0,2.31,2.52,0,10.21,0,0,9.82-4,17-16.51l8.23-8.43L203,310h-25.4S131,334.17,133.26,348.67Z"
        fill="#0071f2"
        data-primary="true"
      />

      <path
        d="M164.79,246.52a197.08,197.08,0,0,0-17,48.77,119.51,119.51,0,0,1-9.08,27.47c-4,8.39-9.7,17.93-17.33,25.68,0,0-6.35,8.95,17.61-2.31,0,0-14.15,19.06,17-.29,0,0-15.88,22.52,23.39-4.62,0,0-4.82,14.09,12.7,0,0,0,6.05-4.91,14.14-16.74,0,0-2.17,8.37,5,3.75v-86.9l-27.49-1.48Z"
        fill="#0071f2"
        data-primary="true"
      />

      <path
        d="M164.79,245.46a200.18,200.18,0,0,0-17,49.25,121.64,121.64,0,0,1-9.08,27.74c-4,8.47-9.7,18.1-17.33,25.93,0,0-6.35,9,17.61-2.33,0,0-14.15,19.24,17-.29,0,0-15.88,22.74,23.39-4.67,0,0-4.82,14.23,12.7,0,0,0,6.05-5,14.14-16.91,0,0-2.17,8.46,5,3.79V240.21l-27.49-1.49Z"
        opacity="0.2"
      />

      <path
        d="M200.33,180.75s-44.36,63.18-34,74.73c0,0,5.19,2,9.52-8.09,0,0-11.55,30.47-5.77,34.58,0,0,4.67,4.11,12.44-19.85,0,0-.52,11.94,5.88,7.18a10.73,10.73,0,0,0,2.43-2.6A125.53,125.53,0,0,0,203,243.06s-.05,7.48,4.45,2.59c0,0,1.17-18.79,3.7-31.19l-3-26.83Z"
        fill="#0071f2"
        data-primary="true"
      />

      <path
        d="M200.33,180.75s-44.36,63.18-34,74.73c0,0,5.19,2,9.52-8.09,0,0-11.55,30.47-5.77,34.58,0,0,4.67,4.11,12.44-19.85,0,0-.52,11.94,5.88,7.18a10.73,10.73,0,0,0,2.43-2.6A125.53,125.53,0,0,0,203,243.06s-.05,7.48,4.45,2.59c0,0,1.17-18.79,3.7-31.19l-3-26.83Z"
        opacity="0.1"
      />

      <path
        d="M423.24,302.74s3,1,4.11-6.44c0,0,13.71,13.52,22.1,10.94,0,0,5.8-6.78-9.68-21,0,0,27.42,22.58,46.45,17.1,0,0,1-7.1-11.94-17.1,0,0,20.39,12.36,43.33,12.28a1.34,1.34,0,0,0,1.28-1.72c-.68-2.23-3.12-6.6-11.7-12.82,0,0,24.51,12.71,54.77,9.7a1.58,1.58,0,0,0,1-2.65c-3.11-3.34-10.19-10-23.2-17.37,0,0,34.51,19,71.29,12.9,0,0-2.26-5.8-28.71-18.06,0,0,35.16,7.74,50,0,0,0-.33-5.81-44.84-20.33,0,0,52.47,10.76,74-4.3,0,0-2.59-5.16-32.69-13.33,0,0,70.1,9.89,104.94-14.19L624.93,200.61S723,209.53,751.38,179c0,0-15.49-6-78.28-5.17L597,173.71s66.67,3.1,110.54-60.13c0,0-177.47,58.75-226.87,59.68l-59.95,11.16L370.36,237l1.35,24.08,34.86,27.2S416,297.14,423.24,302.74Z"
        fill="#0071f2"
        data-primary="true"
      />

      <path
        d="M405.66,179s49.64-11.8,75-5.71a1.17,1.17,0,0,1,.36,2.13c-5.15,3.2-19.49,10.76-42.63,13,0,0,18.22-1.62,25.61,1.58a1.29,1.29,0,0,1,.08,2.32c-5.13,2.74-20.6,9.55-45.65,8.37,0,0,26.45,4.2,25.4,8.56,0,0-14,4.77-23.12,1.57,0,0,11.28,6.83,8.48,8,0,0-14.69,4.38-33.84-4.41,0,0,10.15,9.93,13,17.55a.75.75,0,0,1-.89,1,31.43,31.43,0,0,1-12.07-6l-5.88-31.76,2.15-10.74Z"
        fill="#e6e7e8"
      />

      <path
        d="M393.34,205.08s6.06,16.45,0,31c0,0,5.4,33-13.44,37.77l-63.22-68.82,13.2-9.92,54.28,5.45h6.3Z"
        fill="#0071f2"
        data-primary="true"
      />

      <path
        d="M393.34,205.08s6.06,16.45,0,31c0,0,5.4,33-13.44,37.77l-63.22-68.82,13.2-9.92,54.28,5.45h6.3Z"
        fill="#fff"
        opacity="0.5"
      />

      <path
        d="M333.44,184.42l-27.22-1.95-73.05-45.9c3.68-4.7,14.07-8.72,14.07-8.72-11.06-4.36,10.06-9.35,10.06-9.35-13.08-6,24.17-16,24.17-16a9.64,9.64,0,0,0-2.38,1.88c-1.89,2.06-3.47,5.25.12,8.53,0,0-5.17,1-5.32,5.93a4,4,0,0,0,.69,2.41,9.92,9.92,0,0,0,3.84,3s-4.4,3-3,7a5.49,5.49,0,0,0,1.25,1.92,14.42,14.42,0,0,0,4.19,2.9s-9.61,10.48,8.1,15c0,0-8.1,8.55,8.51,12.9,0,0-2.41,8.71,18.07,6.94,0,0-7.42,8.54,17.74,10.8A2.45,2.45,0,0,0,333.44,184.42Z"
        fill="#0071f2"
        data-primary="true"
      />

      <path
        d="M333.44,184.42l-27.22-1.95-73.05-45.9c3.68-4.7,14.07-8.72,14.07-8.72-11.06-4.36,10.06-9.35,10.06-9.35-13.08-6,24.17-16,24.17-16a9.64,9.64,0,0,0-2.38,1.88c-1.89,2.06-3.47,5.25.12,8.53,0,0-5.17,1-5.32,5.93a4,4,0,0,0,.69,2.41,9.92,9.92,0,0,0,3.84,3s-4.4,3-3,7a5.49,5.49,0,0,0,1.25,1.92,14.42,14.42,0,0,0,4.19,2.9s-9.61,10.48,8.1,15c0,0-8.1,8.55,8.51,12.9,0,0-2.41,8.71,18.07,6.94,0,0-7.42,8.54,17.74,10.8A2.45,2.45,0,0,0,333.44,184.42Z"
        opacity="0.4"
      />

      <path
        d="M306.22,182.47a115,115,0,0,1,22.86,22.23c.14.18.23-.28.18-.5-.32-1.29-.72-2.93.24-3.25,0,0,2.13-2.36,2.13,4.72l6.78,5.49s6-14.46,6.44-6.67c0,0,1.15,13.22,5.77,6.85,0,0,1.55-4.08,2.73,1.74,0,0,1.66,6.52,4.73,5.58,0,0,3.62.87,6.56-12,0,0,1.46-2.13,2.65,2.36,0,0,1.65,7.08,5.66,5.9,0,0,4.25.71,3.07-11.57,0,0,7.88,11.64,13-.47,0,0,2.16,3.72,4.33,2.24a1.4,1.4,0,0,0,.6-1.2c-.1-2.32-.33-10.54,1.39-13.95l-61.89-5.51Z"
        fill="#0071f2"
        data-primary="true"
      />

      <path
        d="M306.22,182.47a115,115,0,0,1,22.86,22.23c.14.18.23-.28.18-.5-.32-1.29-.72-2.93.24-3.25,0,0,2.13-2.36,2.13,4.72l6.78,5.49s6-14.46,6.44-6.67c0,0,1.15,13.22,5.77,6.85,0,0,1.55-4.08,2.73,1.74,0,0,1.66,6.52,4.73,5.58,0,0,3.62.87,6.56-12,0,0,1.46-2.13,2.65,2.36,0,0,1.65,7.08,5.66,5.9,0,0,4.25.71,3.07-11.57,0,0,7.88,11.64,13-.47,0,0,2.16,3.72,4.33,2.24a1.4,1.4,0,0,0,.6-1.2c-.1-2.32-.33-10.54,1.39-13.95l-61.89-5.51Z"
        opacity="0.2"
      />

      <path
        d="M427.35,140.3,419,160.62c-4.35.65-8.7,10.33-8.7,10.33-4.84,9.51-8.77,13.6-8.77,13.6-12.48,12.69-14.41,5.8-14.41,5.8C372.89,200,374,192.09,374,192.09c-18.49,5.4-17.2-.23-17.2-.23-15.7,1.51-12-4.73-12-4.73-7.45,0-10.3-1.35-11.28-2.71a2.45,2.45,0,0,1-.12-2.67c-25.16-2.26-17.74-10.8-17.74-10.8-20.48,1.77-18.07-6.94-18.07-6.94-16.61-4.35-8.51-12.9-8.51-12.9-17.71-4.52-8.1-15-8.1-15a14.42,14.42,0,0,1-4.19-2.9,5.49,5.49,0,0,1-1.25-1.92c-1.44-4,3-7,3-7a9.92,9.92,0,0,1-3.84-3,4,4,0,0,1-.69-2.41c.15-4.92,5.32-5.93,5.32-5.93-3.59-3.28-2-6.47-.12-8.53a9.64,9.64,0,0,1,2.38-1.88,12.3,12.3,0,0,1,2-.94c5.66-2.19,10.34-8,10.34-8a77.94,77.94,0,0,1,10.33-11.13l54.69,18.37,38.07,13.87Z"
        fill="#2f2e41"
        data-secondary="true"
      />

      <path
        d="M211.18,214.46s-11.21,61.64,0,122.42c0,0,8.53,51.3,26.71,61.84a2.08,2.08,0,0,0,3-1.05c1.41-3.56,3.77-12,2.65-26.8,0,0,21.56,48.43,30.86,54.06,0,0,6.2-4.23,2-26.49,0,0,22.26,53.54,46.21,64.53l-5.35-40.29s20.29,51,33.82,59.74l19.49,16.86a.58.58,0,0,0,1-.57l-11.14-47.29s21.41,41.06,45.37,48c0,0,3.94-2.92-7.05-29.13,0,0-14.09-26.77-17.47-40.3,0,0,33,59.46,71.86,66.23,0,0,3.66-2.26-7.33-23.67,0,0-18.6-30.44-25.08-45.66,0,0,29.31,56.65,71.58,83.42,0,0,29,18,52.7,23.1,0,0,1.4-.28-4.51-15.21,0,0-81.44-110.47-92.15-122,0,0,85.66,113.28,144.56,107.65,0,0,1.13-.57-15.78-23.11,0,0-65.1-70.45-77.21-82.57,0,0,90.45,61.15,130.75,36.92,0,0,2.54-5.92-33.25-26.49,0,0-142-73.07-190.75-120.28L260.09,209.17Z"
        fill="#0071f2"
        data-primary="true"
      />

      <path
        d="M211.18,214.46s-11.21,61.64,0,122.42c0,0,8.53,51.3,26.71,61.84a2.08,2.08,0,0,0,3-1.05c1.41-3.56,3.77-12,2.65-26.8,0,0,21.56,48.43,30.86,54.06,0,0,6.2-4.23,2-26.49,0,0,22.26,53.54,46.21,64.53l-5.35-40.29s20.29,51,33.82,59.74l19.49,16.86a.58.58,0,0,0,1-.57l-11.14-47.29s21.41,41.06,45.37,48c0,0,3.94-2.92-7.05-29.13,0,0-14.09-26.77-17.47-40.3,0,0,33,59.46,71.86,66.23,0,0,3.66-2.26-7.33-23.67,0,0-18.6-30.44-25.08-45.66,0,0,29.31,56.65,71.58,83.42,0,0,29,18,52.7,23.1,0,0,1.4-.28-4.51-15.21,0,0-81.44-110.47-92.15-122,0,0,85.66,113.28,144.56,107.65,0,0,1.13-.57-15.78-23.11,0,0-65.1-70.45-77.21-82.57,0,0,90.45,61.15,130.75,36.92,0,0,2.54-5.92-33.25-26.49,0,0-142-73.07-190.75-120.28L260.09,209.17Z"
        opacity="0.4"
      />

      <path
        d="M272.83,449.41a6.4,6.4,0,0,0,2.29-3.1,9.25,9.25,0,0,0,.36-1.72,11.84,11.84,0,0,0-1.3-5.85,28.42,28.42,0,0,1-3.35-8.37,10.18,10.18,0,0,1,1-7.72,25.22,25.22,0,0,1-3.48-4.46l-28.2-13.65s-7.8.9-14-4.13c0,0,1,4,7.49,5.83l19.25,10.25S236.41,419,252.25,432l.93,1.87a22.94,22.94,0,0,0-2.86,7.33,3.08,3.08,0,0,0,1.93,3.48c1.09.39,2.26.1,2.65-2.49a15.11,15.11,0,0,1,1.57-4.9c2.27-4.23,6.62-11.46,8.2-8.08,0,0,.64,7.35,3.21,10.87a4.42,4.42,0,0,1-1.72,6.61l-.56.22s-9.86,3.86-7.92,8.54c0,0,1.3,4,5.4-1,0,0,3.57-4.14,8.52-4.35a6,6,0,0,0,1.23-.73Zm-18.65-18s2.15-2.19-1.29-5.61c0,0-4.26-4.5,2-6h4.72S259.77,430.14,254.18,431.43Z"
        fill="#2f2e41"
        data-secondary="true"
      />

      <path
        d="M282.51,438.86a13.82,13.82,0,0,0-3.62-6.78c-4-4.18-4.51-7.15-4.51-7.15l-2.59-2.28a11.94,11.94,0,0,0-1.13,3,13.19,13.19,0,0,0,.17,4.68h0l4.68,4.71c5,7.53,0,7.1,0,7.1a12.68,12.68,0,0,1,0,2.41,6.71,6.71,0,0,1-.36,1.72,5,5,0,0,1-2.29,3.1h0C282.33,448.12,283.33,442.94,282.51,438.86Z"
        fill="#2f2e41"
        data-secondary="true"
      />

      <circle cx="381.47" cy="121.64" r="9.71" fill="#fff" />

      <ellipse
        cx="381.47"
        cy="120.15"
        rx="7.86"
        ry="8.54"
        fill="#0071f2"
        data-primary="true"
      />

      <circle
        cx="380.76"
        cy="116.59"
        r="4.74"
        fill="#2f2e41"
        data-secondary="true"
      />

      <path
        d="M316.2,138.79S308.4,135,317.93,127c0,0-1.52-7.14,19.7-8.44,0,0,16.46-1,27.94,10.14,0,0,7.14,8.05,16.67,6.75,0,0,21.87-.43,25.55,11.26,0,0,1.19,9.44,5.2,12.13,0,0-5.63,1.94-6.28,5,0,0-2.6,9.52-10.83,9.52,0,0-4.76,8.88-10.17,3.25,0,0-6.72,4.12-9.1-.43,0,0-6.71,6.28-12.13.22,0,0-11.91,4.54-12.34-3.69,0,0-19.7.87-18.62-9.52,0,0-14.08,1.08-14.94-11C318.58,152.08,306.45,144.56,316.2,138.79Z"
        fill="#e6e7e8"
      />

      <path
        d="M320.58,75.79s-19.4.1-16.48,6.63c0,0-4.67,4.52-.3,6,0,0-5.4,7,5.24,6.1,0,0-1.05,8.29,11,5.41,0,0-3.21,4.61,7.44,4.61h13.23s-2,3.16,16.69,2.87c0,0,2.07,4.8,15.25,4,0,0,16.4-4.55,21.86,10.24,0,0,2,8.46,13.81,13.64a18.4,18.4,0,0,1,6.91,6.33l12.14-1.31s-5.52-12.16-3.8-18.66c0,0,1.46-13-5.4-20.3C418.15,101.34,345.06,77,320.58,75.79Z"
        fill="#e6e7e8"
      />

      <path
        d="M329.42,72.14s-12.09-2.07-8.84,3.65A7,7,0,0,0,325,79c1,.25,2.46.55,4.4.86,0,0-4.1,8.44,12.09,7.53,0,0-2.77,5.7,9.11,4.79,0,0-4.09,6.38,15.53,3.42,0,0-2.51,4.1,12.09,3.65,0,0-4.34,4.1,7.3,5.93,0,0,18.24,3.65,24.86,16.42,0,0,.68-6.61,0-10.26a22.63,22.63,0,0,1,7.75,8.44s5.71-9.13,0-18.48c0,0-19.84-26.69-61.35-31.48,0,0-32.3-5.74-29,0Z"
        fill="#2f2e41"
        data-secondary="true"
      />

      <path
        d="M443.7,160.6a11.21,11.21,0,0,0-3.11-2.23c-3.63-2-10.94-4.5-24.52-4.67,0,0-4.48,0-7.08-1.65h0c-1.59-1-2.47-2.68-1.19-5.37,0,0,6.38-12.28,19.56-6.37C427.35,140.3,445.42,149.38,443.7,160.6Z"
        fill="#2f2e41"
        data-secondary="true"
      />

      <path
        d="M443.7,160.6a11.21,11.21,0,0,0-3.11-2.23c-3.63-2-10.94-4.5-24.52-4.67,0,0-4.48,0-7.08-1.65h0c-1.59-1-2.47-2.68-1.19-5.37,0,0,6.38-12.28,19.56-6.37C427.35,140.3,445.42,149.38,443.7,160.6Z"
        opacity="0.2"
      />

      <path
        d="M440.6,158.39c-4.29-.85-9.75.89-12.09,1.75a21.49,21.49,0,0,1-3.51,1c-9.75,1.79-12-2.32-12-2.32-2.58-1.9-3.92-6.46-4-6.74,2.6,1.66,7.08,1.65,7.08,1.65,13.58.17,20.89,2.72,24.52,4.67Z"
        fill="#2f2e41"
        data-secondary="true"
      />

      <path
        d="M440.6,158.39c-4.29-.85-9.75.89-12.09,1.75a21.49,21.49,0,0,1-3.51,1c-9.75,1.79-12-2.32-12-2.32-2.58-1.9-3.92-6.46-4-6.74,2.6,1.66,7.08,1.65,7.08,1.65,13.58.17,20.89,2.72,24.52,4.67Z"
        opacity="0.4"
      />

      <path
        d="M408.12,288c-13.74,3-41-5.83-41.69-6.06,6,3.08,9.06,5.51,10.59,7.28a3.25,3.25,0,0,1-1,5.05c-13.6,6.92-45.7-6.48-45.7-6.48,7.6,23.95-42.93-11.23-42.93-11.23.8,15.64-36.12-20.07-36.12-20.07-19.52,9.57-39.77-41.32-40.05-42a24.58,24.58,0,0,0,2.78,3.35,5.8,5.8,0,0,0,2.91,1.61c6.67,1.33,10.48-10.3,11.43-13.63a.3.3,0,0,1,.56,0c1.7,4.38,9.75,24,16.9,22.63,0,0,4.41-.64,4.93-9.66,0,0,7.64,10.81,15.4,14.27a4.18,4.18,0,0,0,5.76-2.77A17.24,17.24,0,0,0,272,224s8.2,11.3,15,13.89a3.83,3.83,0,0,0,5.13-2.89c.44-2.44.44-6.61-1.19-13.59,0,0,9.86,15.51,20.49,18.26,6.47,1.66,2.66-9,2.53-9.4,9.38,7.13,16.59,9,20.54,9.38a3.4,3.4,0,0,0,3.73-3.62c-.65-10.51-13.52-26.24-13.52-26.24l6.47,1.53a1.16,1.16,0,0,0,1.28-1.69,39.35,39.35,0,0,0-3.31-4.93,5.65,5.65,0,0,1,2.54,1l55.65,45.06c20.86,14.27,17.26,17,17.26,17-7,2.34-28.48-5.95-29.65-6.4,25.7,13.37,32.25,22.83,33.72,25.61A.74.74,0,0,1,408.12,288Z"
        fill="#0071f2"
        data-primary="true"
      />

      <path
        d="M408.12,288c-13.74,3-41-5.83-41.69-6.06,6,3.08,9.06,5.51,10.59,7.28a3.25,3.25,0,0,1-1,5.05c-13.6,6.92-45.7-6.48-45.7-6.48,7.6,23.95-42.93-11.23-42.93-11.23.8,15.64-36.12-20.07-36.12-20.07-19.52,9.57-39.77-41.32-40.05-42a24.58,24.58,0,0,0,2.78,3.35,5.8,5.8,0,0,0,2.91,1.61c6.67,1.33,10.48-10.3,11.43-13.63a.3.3,0,0,1,.56,0c1.7,4.38,9.75,24,16.9,22.63,0,0,4.41-.64,4.93-9.66,0,0,7.64,10.81,15.4,14.27a4.18,4.18,0,0,0,5.76-2.77A17.24,17.24,0,0,0,272,224s8.2,11.3,15,13.89a3.83,3.83,0,0,0,5.13-2.89c.44-2.44.44-6.61-1.19-13.59,0,0,9.86,15.51,20.49,18.26,6.47,1.66,2.66-9,2.53-9.4,9.38,7.13,16.59,9,20.54,9.38a3.4,3.4,0,0,0,3.73-3.62c-.65-10.51-13.52-26.24-13.52-26.24l6.47,1.53a1.16,1.16,0,0,0,1.28-1.69,39.35,39.35,0,0,0-3.31-4.93,5.65,5.65,0,0,1,2.54,1l55.65,45.06c20.86,14.27,17.26,17,17.26,17-7,2.34-28.48-5.95-29.65-6.4,25.7,13.37,32.25,22.83,33.72,25.61A.74.74,0,0,1,408.12,288Z"
        opacity="0.2"
      />

      <path
        d="M334.44,239.65c-3.95-.4-11.16-2.25-20.54-9.38.13.37,3.94,11.06-2.53,9.4-10.63-2.75-20.49-18.26-20.49-18.26,1.63,7,1.63,11.15,1.19,13.59a3.83,3.83,0,0,1-5.13,2.89C280.16,235.3,272,224,272,224a17.24,17.24,0,0,1-.1,6.25A4.18,4.18,0,0,1,266.1,233c-7.76-3.46-15.4-14.27-15.4-14.27-.52,9-4.93,9.66-4.93,9.66-7.15,1.38-15.2-18.25-16.9-22.63a.3.3,0,0,0-.56,0c-.95,3.33-4.76,15-11.43,13.63a5.8,5.8,0,0,1-2.91-1.61,24.58,24.58,0,0,1-2.78-3.35h0c-4.58-6.5-11.65-21.57-12.13-52.9,0,0,.35-34,22.9-34.69,0,0,15.05-3.82,54.47,29.94,0,0,38.77,29.85,52.67,47.89a39.35,39.35,0,0,1,3.31,4.93,1.16,1.16,0,0,1-1.28,1.69l-6.47-1.53s12.87,15.73,13.52,26.24A3.4,3.4,0,0,1,334.44,239.65Z"
        fill="#0071f2"
        data-primary="true"
      />

      <path
        d="M356.07,246.91c-1.1-1.69,3.09,1.12,4,1.06a2,2,0,0,0,1.83-1.93c.42-12.19-16.91-24-16.91-24,6,7.73,7.4,14.12,7.4,14.12-1.18,1.18-5.21-2.85-5.21-2.85-8.75-9.25-9-7.4-9-7.4-2.25,0,7,16.41,7,16.41,7.56,15.23,5.64,17.21,5.64,17.21-2.94,1.85-16.07-9.92-16.07-9.92-6.22-5.88-7-5.27-7-5.27-1.29-.48.49,9.68.49,9.68,1.25,5.36,1.16,8.39.69,10.08a2.38,2.38,0,0,1-3.35,1.53c-8.51-4.21-24.12-24.15-24.12-24.15-2.58-3.36-1.61,6.25-1.61,6.25,1.83,17.34,0,16.45,0,16.45-4.19,0-22.26-21.61-22.26-21.61-1.93-3.39-1.93.16-1.93.16,1.61,8.28,1.43,11.5,1.07,14a3,3,0,0,1-4.41,2.11c-7.66-4.41-22.58-22.4-22.58-22.4C246.28,232,245,232,245,232c-.52,7.26-2.6,7.8-2.6,7.8-6,4.44-22.76-20.35-22.76-20.35s6.89,30.06,25.18,33.24a3.35,3.35,0,0,0,3.7-2,22,22,0,0,0,1.12-8s12.67,27.43,29.43,31.47a2.13,2.13,0,0,0,1.91-.45c1.21-1.1,2.7-4.27,2.33-13.27,0,0,11.94,19.3,22.61,20.95A4.54,4.54,0,0,0,311,278c.56-2.26.88-6.05.23-12.33,0,0,15.4,19.8,28.09,15.79,0,0,4.53-1.52,1.13-14.2,0,0,11.65,8.38,21.75,5.72a3.07,3.07,0,0,0,2.22-2.45C365,267.37,364.62,260.14,356.07,246.91Z"
        fill="#e6e7e8"
      />
    </svg>